<svg width="1150" height="35" viewBox="0 0 1150 35" fill="none" xmlns="http://www.w3.org/2000/svg">
<rect width="1150" height="35" rx="10" fill="#FAFAFA" fill-opacity="0.93"/>
<g clip-path="url(#clip0_16_198)">
<path d="M20.5322 22.5332C21.9297 22.5332 23.2393 22.1113 24.3291 21.3906L28.1787 25.249C28.4336 25.4951 28.7588 25.6182 29.1104 25.6182C29.8398 25.6182 30.376 25.0469 30.376 24.3262C30.376 23.9922 30.2617 23.667 30.0156 23.4209L26.1924 19.5801C26.9834 18.4551 27.4492 17.0928 27.4492 15.6162C27.4492 11.8105 24.3379 8.69922 20.5322 8.69922C16.7354 8.69922 13.6152 11.8105 13.6152 15.6162C13.6152 19.4219 16.7266 22.5332 20.5322 22.5332ZM20.5322 20.6875C17.7461 20.6875 15.4609 18.4023 15.4609 15.6162C15.4609 12.8301 17.7461 10.5449 20.5322 10.5449C23.3184 10.5449 25.6035 12.8301 25.6035 15.6162C25.6035 18.4023 23.3184 20.6875 20.5322 20.6875Z" fill="#3C3C43" fill-opacity="0.6"/>
</g>
<path d="M41.4536 23.7822C44.1265 23.7822 45.8779 22.3877 45.8779 20.1465V20.1382C45.8779 18.4116 44.8901 17.4072 42.3916 16.8511L41.0635 16.5522C39.4365 16.1953 38.7808 15.5479 38.7808 14.5933V14.585C38.7808 13.3315 39.9346 12.626 41.4287 12.6177C42.9893 12.6094 43.9854 13.3896 44.1514 14.4438L44.168 14.5518H45.6621L45.6538 14.4355C45.5293 12.6509 43.8608 11.2397 41.4702 11.2397C38.9966 11.2397 37.2617 12.6426 37.2534 14.6265V14.6348C37.2534 16.3696 38.291 17.4736 40.6899 18.0049L42.0181 18.2954C43.6616 18.6606 44.3506 19.3413 44.3506 20.3374V20.3457C44.3506 21.5659 43.1636 22.4043 41.5366 22.4043C39.8101 22.4043 38.5649 21.6489 38.457 20.4536L38.4487 20.3623H36.9546L36.9629 20.4536C37.1372 22.4043 38.8306 23.7822 41.4536 23.7822ZM51.4299 23.6577C53.5383 23.6577 54.8166 22.4624 55.1237 21.2505L55.1403 21.1841H53.696L53.6628 21.2588C53.4221 21.7983 52.675 22.3711 51.4631 22.3711C49.8693 22.3711 48.8483 21.292 48.8068 19.4409H55.2483V18.8765C55.2483 16.2036 53.7707 14.394 51.3386 14.394C48.9065 14.394 47.3293 16.2866 47.3293 19.0508V19.0591C47.3293 21.8647 48.8733 23.6577 51.4299 23.6577ZM51.3303 15.6807C52.6501 15.6807 53.6296 16.519 53.779 18.2871H48.8317C48.9895 16.5854 50.0022 15.6807 51.3303 15.6807ZM59.5385 23.6577C60.7421 23.6577 61.6801 23.1348 62.2445 22.1802H62.3774V23.5H63.8217V17.374C63.8217 15.5146 62.6015 14.394 60.4184 14.394C58.5092 14.394 57.1479 15.3403 56.9154 16.7432L56.9071 16.793H58.3515L58.3598 16.7681C58.5922 16.0708 59.2978 15.6724 60.3686 15.6724C61.705 15.6724 62.3774 16.27 62.3774 17.374V18.1875L59.8124 18.3452C57.7289 18.4697 56.5502 19.3911 56.5502 20.9849V21.0015C56.5502 22.6284 57.8368 23.6577 59.5385 23.6577ZM58.0278 20.9683V20.9517C58.0278 20.0635 58.6254 19.582 59.9867 19.499L62.3774 19.3496V20.1631C62.3774 21.4414 61.3066 22.4043 59.8373 22.4043C58.7997 22.4043 58.0278 21.873 58.0278 20.9683ZM66.0533 23.5H67.4977V17.9551C67.4977 16.6436 68.4772 15.772 69.8551 15.772C70.1705 15.772 70.4445 15.8052 70.7433 15.855V14.4521C70.6022 14.4272 70.295 14.394 70.0211 14.394C68.8092 14.394 67.9708 14.9419 67.6305 15.8799H67.4977V14.5518H66.0533V23.5ZM75.5316 23.6577C77.6815 23.6577 78.8851 22.5039 79.2503 20.8853L79.2669 20.7939L77.8392 20.8022L77.8226 20.8521C77.4906 21.8481 76.7269 22.3794 75.5233 22.3794C73.9295 22.3794 72.9002 21.0596 72.9002 19.001V18.9844C72.9002 16.9673 73.9129 15.6724 75.5233 15.6724C76.8099 15.6724 77.6068 16.3862 77.8309 17.2661L77.8392 17.291H79.2752L79.2669 17.2412C79.0013 15.6475 77.6981 14.394 75.5233 14.394C73.0164 14.394 71.4227 16.2036 71.4227 18.9844V19.001C71.4227 21.8398 73.0247 23.6577 75.5316 23.6577ZM81.0586 23.5H82.503V18.2041C82.503 16.6353 83.4078 15.6724 84.8355 15.6724C86.2632 15.6724 86.9273 16.4443 86.9273 18.0547V23.5H88.3716V17.7061C88.3716 15.5811 87.251 14.394 85.2422 14.394C83.9224 14.394 83.084 14.9502 82.6358 15.8965H82.503V10.999H81.0586V23.5Z" fill="#3C3C43" fill-opacity="0.6"/>
<defs>
<clipPath id="clip0_16_198">
<rect width="28" height="28" fill="white" transform="translate(8 3.5)"/>
</clipPath>
</defs>
</svg>
