<svg width="22" height="18" viewBox="0 0 22 18" fill="none" xmlns="http://www.w3.org/2000/svg">
    <path fill-rule="evenodd" clip-rule="evenodd" d="M15.7538 0H5.25127C2.36333 0 0 2.02432 0 4.5V13.5C0 15.9748 2.36333 18 5.25127 18H15.7538C18.6417 18 21.0051 15.9748 21.0051 13.5V4.5C21.0051 2.02432 18.6417 0 15.7538 0ZM10.5025 12.7498C8.08534 12.7498 6.12636 11.0704 6.12636 8.99995C6.12636 6.9286 8.08534 5.24988 10.5025 5.24988C12.9186 5.24988 14.8786 6.9286 14.8786 8.99995C14.8786 11.0704 12.9186 12.7498 10.5025 12.7498ZM14.8788 4.12488C14.8788 4.7461 15.4659 5.24988 16.1916 5.24988C16.9173 5.24988 17.5044 4.7461 17.5044 4.12488C17.5044 3.50365 16.9173 2.99988 16.1916 2.99988C15.4659 2.99988 14.8788 3.50365 14.8788 4.12488Z" fill="#0A142F"/>
</svg>